HIERARCHY
ROOT Hips
{
	OFFSET 0.000000 0.000000 0.000000
	CHANNELS 6 Xposition Yposition Zposition Zrotation Yrotation Xrotation 
	JOINT LeftUpLeg_virtual
	{
		OFFSET 0.000000 0.000000 0.000000
		CHANNELS 3 Zrotation Yrotation Xrotation
		JOINT LeftUpLeg
		{
			OFFSET 8.479694 -4.795517 -0.379053
			CHANNELS 3 Zrotation Yrotation Xrotation
			JOINT LeftLeg
			{
				OFFSET 0.485052 -32.551468 0.112863
				CHANNELS 3 Zrotation Yrotation Xrotation
				JOINT LeftFoot
				{
					OFFSET 0.438033 -32.635670 -3.012641
					CHANNELS 3 Zrotation Yrotation Xrotation
					JOINT LeftToeBase
					{
						OFFSET 0.970169 -13.225353 11.864223
						CHANNELS 3 Zrotation Yrotation Xrotation
						End Site
						{
							OFFSET 0.000000 0.000000 0.000000
						}
					}
				}
			}
		}
	}
	JOINT RightUpLeg_virtual
	{
		OFFSET 0.000000 0.000000 0.000000
		CHANNELS 3 Zrotation Yrotation Xrotation
		JOINT RightUpLeg
		{
			OFFSET -8.479694 -4.795517 -0.379053
			CHANNELS 3 Zrotation Yrotation Xrotation
			JOINT RightLeg
			{
				OFFSET -0.484100 -32.551483 0.112903
				CHANNELS 3 Zrotation Yrotation Xrotation
				JOINT RightFoot
				{
					OFFSET -0.438985 -32.635651 -3.012681
					CHANNELS 3 Zrotation Yrotation Xrotation
					JOINT RightToeBase
					{
						OFFSET -0.970169 -13.225354 11.864223
						CHANNELS 3 Zrotation Yrotation Xrotation
						End Site
						{
							OFFSET 0.000000 0.000000 0.000000
						}
					}
				}
			}
		}
	}
	JOINT Spine_virtual
	{
		OFFSET 0.000000 0.000000 0.000000
		CHANNELS 3 Zrotation Yrotation Xrotation
		JOINT Spine
		{
			OFFSET 0.000000 7.722015 1.166203
			CHANNELS 3 Zrotation Yrotation Xrotation
			JOINT Spine1
			{
				OFFSET 0.000000 12.024086 0.248766
				CHANNELS 3 Zrotation Yrotation Xrotation
				JOINT Spine2
				{
					OFFSET -0.000000 11.503036 -0.491240
					CHANNELS 3 Zrotation Yrotation Xrotation
					JOINT Neck_virtual
					{
						OFFSET 0.000000 0.000000 0.000000
						CHANNELS 3 Zrotation Yrotation Xrotation
						JOINT Neck
						{
							OFFSET 0.000000 18.430687 -3.123054
							CHANNELS 3 Zrotation Yrotation Xrotation
							JOINT Head
							{
								OFFSET -0.000000 9.051071 1.034021
								CHANNELS 3 Zrotation Yrotation Xrotation
								End Site
								{
									OFFSET 0.000000 0.000000 0.000000
								}
							}
						}
					}
					JOINT LeftShoulder_virtual
					{
						OFFSET 0.000000 0.000000 0.000000
						CHANNELS 3 Zrotation Yrotation Xrotation
						JOINT LeftShoulder
						{
							OFFSET 6.197824 13.665230 -4.064723
							CHANNELS 3 Zrotation Yrotation Xrotation
							JOINT LeftArm
							{
								OFFSET 7.778132 -0.187073 -1.709282
								CHANNELS 3 Zrotation Yrotation Xrotation
								JOINT LeftForeArm
								{
									OFFSET 21.954697 0.000000 -2.041093
									CHANNELS 3 Zrotation Yrotation Xrotation
									JOINT LeftHand
									{
										OFFSET 22.992908 0.000000 -0.870901
										CHANNELS 3 Zrotation Yrotation Xrotation
										End Site
										{
											OFFSET 0.000000 0.000000 0.000000
										}
									}
								}
							}
						}
					}
					JOINT RightShoulder_virtual
					{
						OFFSET 0.000000 0.000000 0.000000
						CHANNELS 3 Zrotation Yrotation Xrotation
						JOINT RightShoulder
						{
							OFFSET -6.197824 13.665230 -4.064723
							CHANNELS 3 Zrotation Yrotation Xrotation
							JOINT RightArm
							{
								OFFSET -7.778132 -0.187073 -1.709282
								CHANNELS 3 Zrotation Yrotation Xrotation
								JOINT RightForeArm
								{
									OFFSET -21.954697 0.000000 -2.041093
									CHANNELS 3 Zrotation Yrotation Xrotation
									JOINT RightHand
									{
										OFFSET -22.992908 0.000000 -0.870901
										CHANNELS 3 Zrotation Yrotation Xrotation
										End Site
										{
											OFFSET 0.000000 0.000000 0.000000
										}
									}
								}
							}
						}
					}
				}
			}
		}
	}
}
MOTION
Frames: 9
Frame Time: 0.033333
-2.117646 77.954376 10.348839 -179.600029 2.354837 -179.591765 1.481494 -1.329871 11.658332 -9.620116 4.800471 -22.838414 9.438183 8.009852 32.930815 3.350734 1.853515 -18.655280 0.000000 0.000000 0.000000 3.029174 0.055585 14.054893 -12.329419 8.382584 -34.805203 1.512726 7.754009 51.283294 13.818873 13.464199 -12.177812 0.000000 0.000000 0.000000 9.142940 0.998899 -0.952304 0.725711 -9.613297 -3.453567 -1.161335 0.004027 1.933802 -0.059239 -0.315975 0.106732 -2.810193 3.683022 14.092092 2.402687 -13.505239 -7.998452 0.000000 0.000000 0.000000 -1.014252 4.092898 11.010294 -17.647616 -7.758358 -1.769763 -52.811555 -26.266889 9.351553 12.541735 -37.608087 -15.297788 0.000000 0.000000 0.000000 -6.922325 6.886911 9.468989 33.428322 18.732837 -44.278433 -32.767327 -43.078949 -46.481865 -178.556909 3.813585 -173.160991 0.000000 0.000000 0.000000 
-2.250219 77.911041 10.509230 -179.448003 1.789887 -179.333037 1.399527 0.071034 11.610886 -9.975116 5.389368 -23.002139 9.498231 8.573595 33.314214 3.676463 2.315916 -18.647562 0.000000 0.000000 0.000000 3.033390 0.348108 13.887210 -12.638825 8.636929 -35.191040 1.219461 8.027186 51.250813 14.115708 13.655047 -11.937125 0.000000 0.000000 0.000000 9.153256 0.649941 -1.100641 0.855300 -9.611692 -3.580551 -1.156112 -0.038458 1.880349 -0.113126 -0.385654 0.088887 -2.798143 3.543170 14.092883 2.323004 -13.608731 -8.121055 0.000000 0.000000 0.000000 -0.940983 4.121965 11.067472 -17.700109 -7.598313 -1.881423 -52.807276 -26.034770 9.029828 12.483697 -37.486708 -15.390271 0.000000 0.000000 0.000000 -6.866068 6.829815 9.499495 33.299037 18.599717 -44.340471 -32.164133 -43.241593 -47.030002 -178.391454 4.110211 -173.050725 0.000000 0.000000 0.000000 
-2.369248 77.873390 10.695294 -179.426870 1.440165 -179.387364 1.455849 0.069304 11.657360 -10.115180 5.581281 -23.274228 9.591237 8.634732 33.548865 3.463266 2.089786 -18.856989 0.000000 0.000000 0.000000 3.133941 0.179353 14.082182 -12.801610 8.548764 -35.535743 1.139248 8.016512 51.431727 14.123127 13.462860 -11.856114 0.000000 0.000000 0.000000 9.149573 0.760540 -0.807143 0.822447 -9.447810 -3.515652 -1.060203 -0.048283 1.761921 -0.108741 -0.388123 0.095144 -2.765335 3.587558 13.987448 2.280989 -13.581359 -8.101676 0.000000 0.000000 0.000000 -0.904389 3.992800 11.082254 -17.599418 -7.455862 -2.036458 -53.143233 -25.339922 8.834003 12.232463 -37.267568 -14.573759 0.000000 0.000000 0.000000 -6.822517 6.786975 9.395978 33.117736 18.430798 -44.401086 -31.497581 -43.326390 -47.282528 -178.187751 4.599879 -172.969172 0.000000 0.000000 0.000000 
-2.389274 77.852249 10.870192 -179.424712 0.837800 -179.284584 1.539709 -0.110267 11.774558 -10.234287 5.827877 -23.655276 9.652095 8.705355 33.576964 3.196364 1.863286 -19.099092 0.000000 0.000000 0.000000 3.256133 0.173767 14.406064 -12.969264 8.367788 -36.003221 1.134522 7.963195 51.362039 14.197699 13.240649 -11.522421 0.000000 0.000000 0.000000 9.165273 0.565792 -0.673915 0.731035 -9.270550 -3.484490 -0.983400 -0.043761 1.758758 -0.147854 -0.405597 0.152364 -2.697655 3.464344 13.878486 2.179152 -13.446141 -8.294657 0.000000 0.000000 0.000000 -0.780570 4.017346 10.948561 -17.449088 -7.292910 -2.086794 -53.769524 -24.250370 8.672815 12.212237 -36.835839 -14.123428 0.000000 0.000000 0.000000 -6.705687 6.774048 9.354648 32.749121 18.281020 -44.371252 -30.606812 -43.103387 -47.759336 -178.021368 5.233655 -172.866323 0.000000 0.000000 0.000000 
-2.349140 77.857216 11.104101 -179.459232 0.189339 -179.522998 1.589604 -0.167131 12.035464 -10.248438 6.043835 -23.938696 9.745378 8.788387 33.815785 2.901316 1.578716 -19.271736 0.000000 0.000000 0.000000 3.311396 0.208741 14.859833 -13.023339 8.151856 -36.304344 1.164278 7.932442 51.321686 14.378513 13.130137 -11.437892 0.000000 0.000000 0.000000 9.101384 0.657270 -0.143982 0.585215 -9.145267 -3.362970 -0.890935 -0.021467 1.608493 -0.107049 -0.331952 0.115605 -2.614718 3.448821 13.846026 2.099729 -13.346593 -8.155918 0.000000 0.000000 0.000000 -0.750942 4.086445 11.161533 -17.071508 -7.221399 -2.484056 -54.553967 -22.912809 8.424414 11.771992 -35.894386 -13.686907 0.000000 0.000000 0.000000 -6.689769 6.702097 9.315886 32.438556 17.979908 -44.085408 -29.723542 -43.131767 -48.266495 -177.786177 5.867009 -172.776301 0.000000 0.000000 0.000000 
-2.314254 77.891510 11.314444 -179.458917 -0.486537 -179.536235 1.537006 -0.216008 12.178114 -10.128898 6.212909 -24.270070 9.784424 8.845431 33.901685 2.641735 1.266399 -19.359510 0.000000 0.000000 0.000000 3.212768 0.390241 15.215918 -12.905465 8.016851 -36.503673 1.181587 7.908518 50.966192 14.622638 13.031617 -11.262450 0.000000 0.000000 0.000000 9.064157 0.599496 0.031973 0.543709 -9.185092 -3.195655 -0.828384 -0.248810 1.573676 -0.221024 -0.485601 0.068937 -2.508574 3.332207 13.745533 2.223612 -13.362724 -8.223835 0.000000 0.000000 0.000000 -0.646320 4.152134 10.796583 -16.606794 -6.841386 -2.359602 -55.283459 -21.179185 7.374818 11.814702 -34.423163 -13.656262 0.000000 0.000000 0.000000 -6.660068 6.905974 9.349463 32.296683 17.906376 -44.024838 -28.974789 -42.792211 -48.944453 -177.670842 6.485928 -172.711087 0.000000 0.000000 0.000000 
-2.281880 77.965813 11.474967 -179.498082 -1.043274 -179.590139 1.302259 -0.276554 12.225792 -9.846651 6.249222 -24.405736 9.777683 8.882178 33.861974 2.510218 1.022959 -19.283209 0.000000 0.000000 0.000000 2.880720 0.555331 15.451484 -12.614261 8.052877 -36.354194 1.250083 7.906531 50.375189 14.793305 12.941986 -11.364504 0.000000 0.000000 0.000000 8.958313 0.598972 0.141474 0.515979 -9.095587 -3.056146 -0.808220 -0.146827 1.557834 -0.097153 -0.314495 0.085295 -2.539036 3.264131 13.693781 2.159477 -13.276250 -8.234533 0.000000 0.000000 0.000000 -0.708735 3.949353 10.890106 -15.856166 -6.825069 -2.814797 -56.006759 -19.139838 6.091424 11.178373 -32.827624 -13.063035 0.000000 0.000000 0.000000 -6.669373 6.557605 9.196840 32.130777 17.344837 -43.955314 -28.560854 -42.412169 -49.623599 -177.593429 7.119544 -172.657033 0.000000 0.000000 0.000000 
-2.204641 78.078827 11.571446 -179.515389 -1.410332 -179.695570 0.947775 -0.355753 12.220127 -9.387914 6.136275 -24.225006 9.705375 8.886576 33.531909 2.548592 0.905841 -19.017832 0.000000 0.000000 0.000000 2.366707 0.654941 15.491605 -12.149319 8.291147 -35.807581 1.328736 7.928534 49.531784 15.085953 13.048586 -11.511855 0.000000 0.000000 0.000000 8.836679 0.807477 0.103005 0.616720 -9.077002 -2.767038 -0.841277 -0.365962 1.593496 -0.148877 -0.464048 0.067725 -2.496378 3.243105 13.586874 2.265587 -13.313070 -8.229289 0.000000 0.000000 0.000000 -0.701366 3.774808 10.561749 -15.006515 -6.591749 -2.839255 -56.695648 -16.880671 4.309988 11.010367 -31.244663 -13.048131 0.000000 0.000000 0.000000 -6.719426 6.504682 8.890273 32.244387 17.145020 -43.777192 -28.456655 -41.718823 -49.987566 -177.618195 7.851822 -172.715608 0.000000 0.000000 0.000000 
-2.051734 78.236794 11.581429 -179.589538 -1.673366 -179.696130 0.450710 -0.522446 12.066368 -8.790075 5.828408 -23.913519 9.605160 8.851391 33.157170 2.760322 0.937209 -18.590713 0.000000 0.000000 0.000000 1.696825 0.538354 15.263692 -11.611426 8.702717 -35.161353 1.519848 7.978778 48.810082 15.197179 12.985993 -11.848033 0.000000 0.000000 0.000000 8.607836 0.537212 -0.008132 0.766388 -8.869577 -2.600117 -0.882003 -0.264226 1.569941 -0.074120 -0.321817 0.075816 -2.475352 3.185330 13.487269 2.363011 -13.216484 -8.257667 0.000000 0.000000 0.000000 -0.827241 3.785467 10.547534 -13.893593 -6.505276 -3.161358 -57.405028 -14.615372 2.563929 10.313902 -29.924141 -12.522894 0.000000 0.000000 0.000000 -6.813761 6.304784 8.777942 32.530490 16.962679 -43.783965 -28.787960 -40.497250 -50.267221 -177.576026 8.673971 -172.699134 0.000000 0.000000 0.000000 
